# xmcd CD database file
#
# Track frame offsets:
#	150
#	13565
#	28456
#	41622
#	54863
#	67289
#	79271
#	92632
#	104882
#	118019
#	132813
#	147780
#	163520
#	184606
#	196739
#	207933
#	219328
#	233130
#	248035
#	261392
#	275705
#	287781
#	302901
#	314870
#	327028
#
# Disc length: 4577 seconds
#
# Revision: 0
# Processed by: cddbd v1.5.2PL0 Copyright (c) Steve Scherf et al.
# Submitted via: CDex 1.70beta2
#
DISCID=7e11df19
DTITLE=Various Artist - The Big Broadcast, Volume 2
DYEAR=1900
DGENRE=Jazz
TTITLE0=Eva Taylor - Baby Won't You Please Come Home
TTITLE1=Broadway Music Masters - Mamma Goes Where Papa Goes
TTITLE2=Abe Lyman's California Orchestra - Let's Talk About My Sweetie
TTITLE3=Rube Bloom - Spring Fever
TTITLE4=Walter Davison's Louisville Loons - South Wind
TTITLE5=Paul Whiteman and His Orchestra - Love and Kisses (From Baby to You)
TTITLE6=Kenneth Casey and His Orchestra - Blue Baby
TTITLE7=Blue Steele and His Orchestra - Because You Are My Dream Girl
TTITLE8=Frank Rich and His Orchestra - I Get The Blues When It Rains
TTITLE9=Annette Hanshaw - Wasting My Love on You
TTITLE10=Roy Fox and His Band - Reaching for the Moon
TTITLE11=Teddy Raph and His Orchestra - Dream a Little Dream of Me
TTITLE12=Rudy Vallée and His Connecticut Yankees - Was That the Human Thing To Do?
TTITLE13=Sid Peltyn and His Orchestra - Play Me a Frigid Air
TTITLE14=Paul Whiteman and His Orchestra - Rise 'n' Shine
TTITLE15=The Three Keys - Oh! By Jingo
TTITLE16=Claude Hopkins Orchestra - Washington Squabble
TTITLE17=Connie Boswell with Jimmie Grier and His Orchestra - With Every Breath I Take
TTITLE18=Isham Jones and His Orchestra - Believe It Beloved
TTITLE19=Cliff Edwards - I Got Shoes - You Got Shoesies
TTITLE20=Joe Venuti and His Blue Four - Tap Room Blues
TTITLE21=Eddie Paul and The Paramount Orchestra - Alone
TTITLE22=Mezz Mezzrow and His Swing Band - The Panic is On
TTITLE23=Don Redman and His Orchestra - Bugle Call Rag
TTITLE24=Red Nichols and His Pennies - Everybody Loves My Baby
EXTD=
EXTT0=
EXTT1=
EXTT2=
EXTT3=
EXTT4=
EXTT5=
EXTT6=
EXTT7=
EXTT8=
EXTT9=
EXTT10=
EXTT11=
EXTT12=
EXTT13=
EXTT14=
EXTT15=
EXTT16=
EXTT17=
EXTT18=
EXTT19=
EXTT20=
EXTT21=
EXTT22=
EXTT23=
EXTT24=
PLAYORDER=
